<svg width="40" height="24" viewBox="0 0 40 24" fill="none" xmlns="http://www.w3.org/2000/svg">
<g clip-path="url(#clip0_0_5366)">
<path fill-rule="evenodd" clip-rule="evenodd" d="M0 3C0 1.34315 1.34315 0 3 0H37C38.6569 0 40 1.34315 40 3V21C40 22.6569 38.6569 24 37 24H3C1.34315 24 0 22.6569 0 21V3Z" fill="#006FCF"/>
<path d="M9.05308 10.2851L9.89708 12.3323H8.21468L9.05308 10.2851ZM26.5891 10.3707H23.3411V11.2723H26.5371V12.6243H23.3483V13.6299H26.5963V14.4363L28.8619 11.9875L26.5955 9.43472L26.5891 10.3707ZM11.2483 7.81792H15.6067L16.5747 9.92832L17.4707 7.81152H28.7835L29.9595 9.10912L31.1755 7.81152H36.3723L32.5331 12.0131L36.3331 16.1891H31.0595L29.8835 14.8915L28.6563 16.1891H10.2083L9.66988 14.8915H8.43788L7.89708 16.1891H3.62988L7.21468 7.81152H10.9563L11.2475 7.81792H11.2483ZM20.6987 8.99392H18.2563L16.6203 12.8515L14.8475 8.99392H12.4235V14.2403L10.1755 8.99232H8.00188L5.40348 15.0059H7.09948L7.63868 13.7075H10.4707L11.0099 15.0059H13.9771V10.7131L15.8867 15.0123H17.1851L19.0835 10.7267V15.0139H20.6739L20.7003 8.99152L20.6987 8.99392ZM30.8883 12.0131L33.6491 8.99392H31.6619L29.9147 10.8763L28.2267 8.99392H21.7963V15.0131H28.1347L29.8955 13.1171L31.5835 15.0131H33.6299L30.8883 12.0131Z" fill="white"/>
</g>
<defs>
<clipPath id="clip0_0_5366">
<rect width="40" height="24" fill="white"/>
</clipPath>
</defs>
</svg>
