<svg width="19" height="24" viewBox="0 0 19 24" fill="none" xmlns="http://www.w3.org/2000/svg">
<g id="Group 39261">
<path id="Vector" fill-rule="evenodd" clip-rule="evenodd" d="M3.20381 0.888672C2.36887 0.888672 1.56813 1.18133 0.977735 1.70226C0.387343 2.2232 0.0556641 2.92974 0.0556641 3.66645V20.3331C0.0556641 21.0698 0.387343 21.7764 0.977735 22.2973C1.56813 22.8182 2.36887 23.1109 3.20381 23.1109H15.7964C16.6313 23.1109 17.4321 22.8182 18.0225 22.2973C18.6129 21.7764 18.9446 21.0698 18.9446 20.3331V8.40812C18.9444 7.67146 18.6126 6.96504 18.0221 6.44423L12.6483 1.70256C12.058 1.18159 11.2574 0.888829 10.4225 0.888672H3.20381Z" fill="#4D4D4D"/>
<path id="Union" fill-rule="evenodd" clip-rule="evenodd" d="M9.8528 8.41736C9.8528 7.94146 9.467 7.55566 8.9911 7.55566C8.5152 7.55566 8.1294 7.94146 8.1294 8.41736V14.7107L5.41535 11.9966C5.07883 11.6601 4.53324 11.6601 4.19672 11.9966C3.86021 12.3331 3.86021 12.8787 4.19672 13.2152L8.33446 17.353C8.49252 17.5388 8.72804 17.6567 8.9911 17.6567C9.01168 17.6567 9.03209 17.656 9.05232 17.6545C9.25331 17.6412 9.45052 17.5577 9.60415 17.4041L13.793 13.2152C14.1295 12.8787 14.1295 12.3331 13.793 11.9966C13.4564 11.6601 12.9108 11.6601 12.5743 11.9966L9.8528 14.7182V8.41736Z" fill="#E6E6E6"/>
</g>
</svg>
