<svg width="32" height="26" viewBox="0 0 32 26" fill="none" xmlns="http://www.w3.org/2000/svg">
<path d="M19.1368 25.3796C25.862 25.4121 32.0004 19.8445 32.0004 13.0717C32.0004 5.66578 25.862 0.546065 19.1368 0.548829H13.3488C6.54351 0.546065 0.941406 5.66716 0.941406 13.0717C0.941406 19.8459 6.54351 25.4121 13.3488 25.3796H19.1368Z" fill="#0079BE"/>
<path d="M13.3764 1.5752C7.15714 1.57727 2.11828 6.66381 2.11621 12.9418C2.11828 19.2191 7.15714 24.3057 13.3764 24.3077C19.5964 24.3057 24.6373 19.2191 24.638 12.9418C24.6373 6.66381 19.597 1.57727 13.3764 1.5752ZM6.23935 12.9418C6.23804 11.4903 6.67465 10.0721 7.49212 8.87268C8.30959 7.67323 9.4699 6.74828 10.8214 6.21874V19.6642C9.46979 19.135 8.30935 18.2103 7.49184 17.0109C6.67433 15.8115 6.2378 14.3933 6.23935 12.9418ZM15.9307 19.667V6.21805C17.2832 6.74684 18.4445 7.6717 19.2626 8.87155C20.0807 10.0714 20.5174 11.4903 20.5155 12.9425C20.5171 14.3946 20.0803 15.8134 19.2622 17.0132C18.4442 18.213 17.2831 19.1379 15.9307 19.667Z" fill="white"/>
<path d="M19.1368 25.3796C25.862 25.4121 32.0004 19.8445 32.0004 13.0717C32.0004 5.66578 25.862 0.546065 19.1368 0.548829H13.3488C6.54351 0.546065 0.941406 5.66716 0.941406 13.0717C0.941406 19.8459 6.54351 25.4121 13.3488 25.3796H19.1368Z" fill="#0079BE"/>
<path d="M13.3764 1.5752C7.15714 1.57727 2.11828 6.66381 2.11621 12.9418C2.11828 19.2191 7.15714 24.3057 13.3764 24.3077C19.5964 24.3057 24.6373 19.2191 24.638 12.9418C24.6373 6.66381 19.597 1.57727 13.3764 1.5752ZM6.23935 12.9418C6.23804 11.4903 6.67465 10.0721 7.49212 8.87268C8.30959 7.67323 9.4699 6.74828 10.8214 6.21874V19.6642C9.46979 19.135 8.30935 18.2103 7.49184 17.0109C6.67433 15.8115 6.2378 14.3933 6.23935 12.9418ZM15.9307 19.667V6.21805C17.2832 6.74684 18.4445 7.6717 19.2626 8.87155C20.0807 10.0714 20.5174 11.4903 20.5155 12.9425C20.5171 14.3946 20.0803 15.8134 19.2622 17.0132C18.4442 18.213 17.2831 19.1379 15.9307 19.667Z" fill="white"/>
</svg>
