<svg width="31" height="28" viewBox="0 0 31 28" fill="none" xmlns="http://www.w3.org/2000/svg">
<path d="M28.0184 22.6852C24.6247 25.6146 19.7058 27.1789 15.4702 27.1789C9.53107 27.1789 4.18347 24.605 0.140597 20.3239C-0.179363 19.9876 0.104335 19.5276 0.486154 19.7892C4.85183 22.7663 10.2485 24.5559 15.8243 24.5559C19.5835 24.5559 23.7231 23.6458 27.5228 21.7531C28.0987 21.4658 28.5822 22.1925 28.0184 22.6831V22.6852ZM29.4305 20.791C28.9982 20.1419 26.5629 20.4839 25.4708 20.6368C25.1366 20.6837 25.0847 20.3438 25.3854 20.1021C27.3244 18.4987 30.5084 18.9623 30.8802 19.4984C31.2542 20.0367 30.7864 23.7738 28.9605 25.5613C28.6803 25.8343 28.4165 25.6879 28.541 25.3238C28.9505 24.1279 29.8684 21.4445 29.4326 20.791H29.4305Z" fill="#FF9900"/>
<path fill-rule="evenodd" clip-rule="evenodd" d="M18.4554 12.0167C18.4554 13.4103 18.4895 14.5742 17.8091 15.8135C17.2594 16.8189 16.3899 17.4361 15.4158 17.4361C14.0876 17.4361 13.3161 16.3909 13.3161 14.843C13.3161 11.7948 15.9554 11.241 18.4554 11.241V12.0167ZM21.9429 20.7402C21.8332 20.8385 21.6953 20.8998 21.5488 20.9154C21.4023 20.9309 21.2546 20.9 21.1267 20.827C19.9791 19.8415 19.7757 19.3822 19.1415 18.4415C17.2473 20.4451 15.9056 21.0445 13.442 21.0445C10.536 21.0445 8.26855 19.1881 8.26855 15.4666C8.26855 12.5628 9.79227 10.5833 11.9559 9.6177C13.8359 8.7602 16.4553 8.60804 18.4547 8.37483V7.90911C18.4547 7.05802 18.5215 6.04836 18.0394 5.31601C17.6157 4.65689 16.8072 4.38599 16.0998 4.38599C14.7794 4.38599 13.5998 5.08493 13.3161 6.53328C13.2557 6.85608 13.0281 7.1732 12.716 7.18742L9.36211 6.81698C9.08267 6.75156 8.77054 6.51408 8.84875 6.06472C9.62021 1.85831 13.2941 0.589844 16.5818 0.589844C18.2613 0.589844 20.4612 1.05201 21.7886 2.37095C23.4723 3.99422 23.3124 6.16781 23.3124 8.52699V14.105C23.3124 15.7815 23.9829 16.5196 24.6128 17.4226C24.8382 17.7468 24.8887 18.135 24.6064 18.3761C23.9004 18.9861 22.6468 20.1181 21.9543 20.7516L21.9451 20.7416" fill="#221F1F"/>
</svg>
