<svg width="38" height="29" viewBox="0 0 38 29" fill="none" xmlns="http://www.w3.org/2000/svg">
<g clip-path="url(#clip0_0_5322)">
<path d="M37.6394 18.6563V18.209H37.5254L37.3924 18.5072L37.2594 18.209H37.1454V18.6563H37.2214V18.3208L37.3544 18.619H37.4494L37.5824 18.3208V18.6563H37.6394ZM36.8794 18.6563V18.2835H37.0314V18.209H36.6514V18.2835H36.8034V18.6563H36.8794Z" fill="#00A2E5"/>
<path d="M24.1296 20.5756H13.8506V2.45996H24.1296V20.5756Z" fill="#7375CF"/>
<path d="M14.516 11.518C14.516 7.8464 16.264 4.5662 19 2.46015C17.005 0.913239 14.478 0 11.742 0C5.263 0 0 5.1626 0 11.518C0 17.8734 5.263 23.036 11.742 23.036C14.478 23.036 17.005 22.1227 19 20.5758C16.264 18.4698 14.516 15.1896 14.516 11.518Z" fill="#EB001B"/>
<path d="M38 11.518C38 17.8734 32.737 23.036 26.258 23.036C23.522 23.036 20.995 22.1227 19 20.5758C21.736 18.4698 23.484 15.1896 23.484 11.518C23.484 7.8464 21.736 4.5662 19 2.46015C20.995 0.913239 23.522 0 26.258 0C32.737 0 38 5.1626 38 11.518Z" fill="#00A2E5"/>
<path d="M27.5883 25.7012C27.7213 25.7012 27.9303 25.7198 28.0633 25.7757L27.8543 26.4094C27.7023 26.3535 27.5693 26.3348 27.4363 26.3348C26.9993 26.3348 26.7713 26.6144 26.7713 27.1176V28.8323H26.0873V25.7757H26.7523V26.1485C26.9423 25.8689 27.2083 25.7012 27.5883 25.7012ZM25.0803 26.3721H23.9783V27.7513C23.9783 28.0495 24.0923 28.2545 24.4343 28.2545C24.6053 28.2545 24.8333 28.1986 25.0423 28.0868L25.2323 28.6645C25.0233 28.8136 24.6813 28.9068 24.3773 28.9068C23.5793 28.9068 23.2943 28.4782 23.2943 27.7699V26.3721H22.6673V25.7571H23.2943V24.8252H23.9783V25.7571H25.0803V26.3721ZM16.3973 27.0244C16.4733 26.5771 16.7393 26.2789 17.2333 26.2789C17.6703 26.2789 17.9553 26.5398 18.0313 27.0244H16.3973ZM18.7343 27.304C18.7343 26.3535 18.1263 25.7012 17.2523 25.7012C16.3403 25.7012 15.6943 26.3535 15.6943 27.304C15.6943 28.2731 16.3593 28.9068 17.2903 28.9068C17.7653 28.9068 18.1833 28.795 18.5633 28.4782L18.2213 27.9936C17.9553 28.1986 17.6323 28.3104 17.3093 28.3104C16.8723 28.3104 16.4733 28.1054 16.3783 27.5649H18.6963C18.7153 27.4717 18.7343 27.3972 18.7343 27.304ZM21.7173 26.5585C21.5273 26.4467 21.1473 26.2976 20.7483 26.2976C20.3683 26.2976 20.1593 26.428 20.1593 26.6517C20.1593 26.8567 20.3873 26.9126 20.6913 26.9499L21.0143 26.9871C21.6983 27.0803 22.0973 27.3599 22.0973 27.9004C22.0973 28.4782 21.5843 28.9068 20.6723 28.9068C20.1593 28.9068 19.6843 28.7764 19.3233 28.5154L19.6463 27.9936C19.8743 28.1613 20.2163 28.3104 20.6913 28.3104C21.1473 28.3104 21.3943 28.1799 21.3943 27.9377C21.3943 27.7699 21.2233 27.6767 20.8433 27.6208L20.5203 27.5836C19.8173 27.4904 19.4373 27.1735 19.4373 26.6889C19.4373 26.0739 19.9503 25.7012 20.7293 25.7012C21.2233 25.7012 21.6793 25.813 22.0023 26.018L21.7173 26.5585ZM30.0773 26.3162C29.9443 26.3162 29.8113 26.3348 29.6973 26.3907C29.5833 26.4467 29.4693 26.5026 29.3933 26.5958C29.3173 26.6889 29.2413 26.7821 29.1843 26.9126C29.1273 27.0244 29.1083 27.1735 29.1083 27.304C29.1083 27.4531 29.1273 27.5836 29.1843 27.6954C29.2413 27.8072 29.2983 27.919 29.3933 28.0122C29.4883 28.1054 29.5833 28.1613 29.6973 28.2172C29.8113 28.2731 29.9443 28.2918 30.0773 28.2918C30.2103 28.2918 30.3433 28.2731 30.4573 28.2172C30.5713 28.1613 30.6853 28.1054 30.7613 28.0122C30.8563 27.919 30.9133 27.8258 30.9703 27.6954C31.0273 27.5836 31.0463 27.4344 31.0463 27.304C31.0463 27.1549 31.0273 27.0244 30.9703 26.9126C30.9133 26.8008 30.8563 26.6889 30.7613 26.5958C30.6663 26.5026 30.5713 26.4467 30.4573 26.3907C30.3433 26.3535 30.2103 26.3162 30.0773 26.3162ZM30.0773 25.7012C30.3243 25.7012 30.5523 25.7384 30.7423 25.8316C30.9513 25.9062 31.1223 26.018 31.2743 26.1671C31.4263 26.3162 31.5403 26.4839 31.6353 26.6703C31.7113 26.8753 31.7683 27.0803 31.7683 27.304C31.7683 27.5276 31.7303 27.7513 31.6353 27.9377C31.5593 28.1427 31.4263 28.3104 31.2743 28.4409C31.1223 28.59 30.9513 28.7018 30.7423 28.7764C30.5333 28.8509 30.3053 28.9068 30.0773 28.9068C29.8303 28.9068 29.6023 28.8695 29.4123 28.7764C29.2033 28.7018 29.0323 28.59 28.8803 28.4409C28.7283 28.2918 28.6143 28.124 28.5193 27.9377C28.4433 27.7326 28.3863 27.5276 28.3863 27.304C28.3863 27.0803 28.4243 26.8567 28.5193 26.6703C28.5953 26.4653 28.7283 26.2976 28.8803 26.1671C29.0323 26.018 29.2033 25.9062 29.4123 25.8316C29.6023 25.7384 29.8303 25.7012 30.0773 25.7012ZM12.4453 27.304C12.4453 26.7635 12.8063 26.3162 13.3953 26.3162C13.9653 26.3162 14.3263 26.7449 14.3263 27.304C14.3263 27.8631 13.9463 28.2731 13.3953 28.2731C12.8063 28.2731 12.4453 27.8445 12.4453 27.304ZM14.9723 27.304V25.7757H14.2883V26.1485C14.0793 25.8689 13.7563 25.7012 13.3003 25.7012C12.4263 25.7012 11.7423 26.3721 11.7423 27.304C11.7423 28.2359 12.4263 28.9068 13.3003 28.9068C13.7373 28.9068 14.0603 28.7391 14.2883 28.4595V28.8323H14.9723V27.304ZM11.1533 28.8323V26.9126C11.1533 26.1857 10.6783 25.7012 9.91834 25.7012C9.51934 25.7012 9.10134 25.813 8.81634 26.2416C8.60734 25.9062 8.26534 25.7012 7.79034 25.7012C7.46734 25.7012 7.12534 25.7943 6.87834 26.1485V25.7757H6.19434V28.8323H6.87834V27.1363C6.87834 26.6144 7.18234 26.3162 7.63834 26.3162C8.09434 26.3162 8.32234 26.5958 8.32234 27.1176V28.8136H9.00634V27.1176C9.00634 26.5958 9.32934 26.2976 9.76634 26.2976C10.2223 26.2976 10.4503 26.5771 10.4503 27.099V28.795H11.1533V28.8323Z" fill="black"/>
<path d="M32.4906 28.5898V28.6643H32.5666C32.5856 28.6643 32.6046 28.6643 32.6046 28.6457C32.6236 28.6457 32.6236 28.6271 32.6236 28.6084C32.6236 28.5898 32.6236 28.5898 32.6046 28.5898C32.6046 28.5898 32.5856 28.5711 32.5666 28.5711H32.4906V28.5898ZM32.5666 28.5525C32.6046 28.5525 32.6236 28.5525 32.6426 28.5711C32.6616 28.5898 32.6806 28.6084 32.6806 28.6457C32.6806 28.6643 32.6806 28.683 32.6616 28.7016C32.6426 28.7202 32.6236 28.7202 32.5856 28.7202L32.6806 28.8321H32.6046L32.5096 28.7202H32.4906V28.8321H32.4336V28.5525H32.5666ZM32.5476 28.9253C32.5856 28.9253 32.6046 28.9253 32.6426 28.9066C32.6806 28.888 32.6996 28.8693 32.7186 28.8507C32.7376 28.8321 32.7566 28.8134 32.7756 28.7762C32.7946 28.7389 32.7946 28.7202 32.7946 28.683C32.7946 28.6457 32.7946 28.6271 32.7756 28.5898C32.7566 28.5525 32.7376 28.5339 32.7186 28.5152C32.6996 28.4966 32.6806 28.478 32.6426 28.4593C32.6236 28.4407 32.5856 28.4407 32.5476 28.4407C32.5096 28.4407 32.4906 28.4407 32.4526 28.4593C32.4146 28.478 32.3956 28.4966 32.3766 28.5152C32.3576 28.5339 32.3386 28.5711 32.3196 28.5898C32.3006 28.6271 32.3006 28.6457 32.3006 28.683C32.3006 28.7202 32.3006 28.7389 32.3196 28.7762C32.3386 28.8134 32.3576 28.8321 32.3766 28.8507C32.3956 28.8693 32.4336 28.888 32.4526 28.9066C32.4906 28.9253 32.5096 28.9253 32.5476 28.9253ZM32.5476 28.3848C32.5856 28.3848 32.6236 28.3848 32.6616 28.4034C32.6996 28.422 32.7376 28.4407 32.7566 28.4593C32.7756 28.478 32.8136 28.5152 32.8326 28.5525C32.8516 28.5898 32.8516 28.6271 32.8516 28.6643C32.8516 28.7016 32.8516 28.7389 32.8326 28.7762C32.8136 28.8134 32.7946 28.8507 32.7566 28.8693C32.7186 28.888 32.6996 28.9253 32.6616 28.9439C32.6236 28.9625 32.5856 28.9625 32.5476 28.9625C32.5096 28.9625 32.4526 28.9625 32.4146 28.9439C32.3766 28.9253 32.3386 28.9066 32.3196 28.8693C32.3006 28.8507 32.2626 28.8134 32.2436 28.7762C32.2246 28.7389 32.2246 28.7016 32.2246 28.6643C32.2246 28.6271 32.2246 28.5898 32.2436 28.5525C32.2626 28.5152 32.2816 28.478 32.3196 28.4593C32.3386 28.4407 32.3766 28.4034 32.4146 28.4034C32.4526 28.3848 32.5096 28.3848 32.5476 28.3848Z" fill="black"/>
</g>
<defs>
<clipPath id="clip0_0_5322">
<rect width="38" height="29" fill="white"/>
</clipPath>
</defs>
</svg>
