<svg width="40" height="13" viewBox="0 0 40 13" fill="none" xmlns="http://www.w3.org/2000/svg">
<g clip-path="url(#clip0_0_5394)">
<path d="M39.8548 3.83914C39.4919 2.76486 38.503 1.99342 37.3415 1.99342H37.3172C36.5621 1.99342 35.8816 2.31883 35.3972 2.84122C34.912 2.31883 34.2315 1.99342 33.4773 1.99342H33.4529C32.7892 1.99342 32.1825 2.24507 31.7165 2.66159V2.44986C31.7006 2.23899 31.533 2.07325 31.326 2.07325H29.5443C29.3264 2.07325 29.1504 2.25548 29.1504 2.48197V12.5003C29.1504 12.7267 29.3264 12.909 29.5443 12.909H31.326C31.5246 12.909 31.688 12.7554 31.714 12.5567L31.7132 5.36467C31.7132 5.3395 31.714 5.31607 31.7165 5.29264C31.745 4.97157 31.9721 4.70777 32.3308 4.6748H32.397H32.5839H32.6593C32.8093 4.68868 32.9359 4.74335 33.0356 4.82579C33.1906 4.95335 33.277 5.14946 33.277 5.36467L33.2837 12.5211C33.2837 12.7476 33.4605 12.9307 33.6775 12.9307H35.4592C35.6696 12.9307 35.8406 12.7571 35.8506 12.541L35.8498 5.35512C35.8489 5.11909 35.9545 4.90562 36.1397 4.77893C36.2311 4.71818 36.3409 4.6774 36.4674 4.66525H36.5336H36.7205H36.7959C37.1814 4.69996 37.4144 5.00281 37.4136 5.35512L37.4203 12.502C37.4203 12.7285 37.5971 12.9107 37.8142 12.9107H39.5959C39.8129 12.9107 39.9897 12.7285 39.9897 12.502V4.81537C39.9897 4.29125 39.9328 4.06823 39.8548 3.83914Z" fill="#54C1F0"/>
<path d="M27.7935 2.09941H26.7744V0.389925C26.7744 0.388189 26.7744 0.386455 26.7744 0.384719C26.7744 0.17906 26.6135 0.0124502 26.4149 0.0124502C26.3914 0.0124502 26.3688 0.0159206 26.347 0.0202599C25.2173 0.341331 25.4436 1.96144 23.3811 2.09941H23.3351H23.1809C23.1507 2.09941 23.1222 2.10375 23.0945 2.10983C22.9185 2.15061 22.7861 2.31288 22.7861 2.50726V4.35212C22.7861 4.57687 22.963 4.75996 23.1809 4.75996H24.2561L24.2544 12.5828C24.2544 12.8058 24.4287 12.9863 24.6441 12.9863H26.4057C26.6202 12.9863 26.7945 12.8058 26.7945 12.5828L26.7954 4.75996H27.7935C28.0105 4.75996 28.1874 4.57687 28.1874 4.35212V2.50726C28.1874 2.28251 28.0105 2.09941 27.7935 2.09941Z" fill="#54C1F0"/>
<path d="M21.3831 2.09994H19.6014C19.3843 2.09994 19.2084 2.28304 19.2084 2.50779V6.32246C19.2042 6.55849 19.0198 6.74766 18.791 6.74766H18.0451C17.8138 6.74766 17.627 6.55502 17.627 6.31552L17.6202 2.50779C17.6202 2.28304 17.4434 2.09994 17.2264 2.09994H15.4447C15.2268 2.09994 15.0508 2.28304 15.0508 2.50779V6.68865C15.0508 8.27666 16.1444 9.40908 17.6789 9.40908C17.6789 9.40908 18.8304 9.40908 18.8656 9.41602C19.0734 9.44032 19.2352 9.62082 19.2352 9.84296C19.2352 10.0625 19.0768 10.2421 18.8715 10.269C18.8614 10.2708 18.8522 10.2734 18.8413 10.2751L16.2358 10.2847C16.0179 10.2847 15.8419 10.4677 15.8419 10.6925V12.5365C15.8419 12.7621 16.0179 12.9443 16.2358 12.9443H19.1489C20.6842 12.9443 21.777 11.8128 21.777 10.2239V2.50779C21.777 2.28304 21.601 2.09994 21.3831 2.09994Z" fill="#233266"/>
<path d="M4.13772 5.4803V6.34111V6.6188C4.13772 6.85743 3.95084 7.05181 3.72037 7.05181L2.58984 7.05268V4.77134H3.72037C3.95084 4.77134 4.13772 4.96398 4.13772 5.20348V5.4803ZM4.29444 2.0995H0.400014C0.18631 2.0995 0.0136719 2.27913 0.0136719 2.49954V4.30708C0.0136719 4.31056 0.0145099 4.31403 0.0145099 4.3175C0.0145099 4.32617 0.0136719 4.33485 0.0136719 4.34266V10.1402V12.5239C0.0136719 12.746 0.174578 12.9274 0.374034 12.9326H0.407556H2.18925C2.40631 12.9326 2.58314 12.7504 2.58314 12.5248L2.58984 9.72104H4.29444C5.7208 9.72104 6.71473 8.69621 6.71473 7.21321V4.6108C6.71473 3.1278 5.7208 2.0995 4.29444 2.0995Z" fill="#233266"/>
<path d="M11.5304 9.81127V10.0994C11.5304 10.1228 11.527 10.1454 11.5237 10.1671C11.5195 10.1879 11.5136 10.2078 11.5069 10.2269C11.4516 10.3883 11.2957 10.5055 11.1105 10.5055H10.3688C10.1375 10.5055 9.94898 10.3232 9.94898 10.0994V9.7514C9.94898 9.74706 9.94814 9.74272 9.94814 9.73838L9.94898 8.81248V8.81074V8.70835V8.52265L9.94981 8.52004C9.95065 8.29703 10.1375 8.11654 10.3688 8.11654H11.1105C11.3427 8.11654 11.5304 8.2979 11.5304 8.52265V9.81127ZM11.2471 2.1099H8.77487C8.55613 2.1099 8.3793 2.28172 8.3793 2.49258V3.21022C8.3793 3.21456 8.38014 3.21977 8.38014 3.2241C8.38014 3.22931 8.3793 3.23452 8.3793 3.23973V4.2229C8.3793 4.44591 8.56703 4.62814 8.79833 4.62814H11.1524C11.3385 4.65851 11.486 4.79909 11.5069 5.01863V5.2564C11.486 5.46553 11.3401 5.61825 11.1625 5.63561H9.99674C8.44635 5.63561 7.3418 6.70209 7.3418 8.19984V10.2903V10.3449C7.3418 11.834 8.29131 12.8936 9.83081 12.8936H13.0615C13.6414 12.8936 14.1116 12.4388 14.1116 11.8791V4.87892C14.1116 3.18158 13.2668 2.1099 11.2471 2.1099Z" fill="#233266"/>
</g>
<defs>
<clipPath id="clip0_0_5394">
<rect width="40" height="13" fill="white"/>
</clipPath>
</defs>
</svg>
