<svg width="43" height="12" viewBox="0 0 43 12" fill="none" xmlns="http://www.w3.org/2000/svg">
<g clip-path="url(#clip0_0_5341)">
<path d="M40.5652 0.839619L42.9901 5.65449L37.8926 10.4717L40.5652 0.839619Z" fill="#008C44"/>
<path d="M38.8867 0.839619L41.308 5.65449L36.2139 10.4717L38.8867 0.839619Z" fill="#F47920"/>
<path d="M0.00976562 8.71973L2.42744 0.00943756H6.29267C7.50066 0.00943756 8.30761 0.200672 8.71815 0.594752C9.12574 0.985667 9.20426 1.62375 8.95857 2.52062C8.80997 3.04894 8.58412 3.49241 8.27384 3.8428C7.96609 4.19382 7.56019 4.47139 7.06036 4.6755C7.48441 4.77745 7.75417 4.97987 7.87511 5.2834C7.99543 5.58693 7.9815 6.02955 7.83543 6.6098L7.5414 7.82645L7.54056 7.85938C7.45571 8.20006 7.48082 8.38243 7.61908 8.3972L7.53 8.71973H4.91519C4.92405 8.51477 4.94031 8.33156 4.95761 8.17768C4.97661 8.02022 5.00004 7.89822 5.02326 7.81442L5.26705 6.94457C5.3899 6.49223 5.3975 6.17667 5.28352 5.99494C5.16848 5.80835 4.91097 5.71653 4.50443 5.71653H3.40557L2.56759 8.71973H0.00976562ZM3.9493 3.75373H5.12626C5.53871 3.75373 5.84308 3.69484 6.03073 3.57304C6.21922 3.4502 6.35916 3.24271 6.44127 2.94256C6.52633 2.63734 6.50544 2.42458 6.38344 2.30363C6.26164 2.18078 5.97015 2.12105 5.5119 2.12105H4.40248L3.9493 3.75373Z" fill="#1B3281"/>
<path d="M16.1352 2.29226L14.3529 8.71976H12.187L12.4532 7.77815C12.072 8.1526 11.6819 8.43692 11.2887 8.61865C10.8986 8.80356 10.487 8.89453 10.0537 8.89453C9.6955 8.89453 9.38796 8.82952 9.14037 8.70055C8.88982 8.57201 8.70323 8.37655 8.57764 8.11882C8.46619 7.89318 8.41764 7.61456 8.43664 7.28169C8.45669 6.9541 8.57236 6.4015 8.78681 5.6277L9.71048 2.29226H12.0796L11.1578 5.61208C11.0232 6.09798 10.9911 6.4395 11.0567 6.62546C11.1251 6.8131 11.3077 6.90999 11.6041 6.90999C11.9025 6.90999 12.1535 6.80192 12.3608 6.58134C12.571 6.36267 12.7333 6.03655 12.8553 5.60258L13.7695 2.29226H16.1352Z" fill="#1B3281"/>
<path d="M15.2754 8.71973L17.6905 0.00943756H21.0129C21.7459 0.00943756 22.3133 0.0527077 22.718 0.147693C23.1217 0.238667 23.4384 0.38642 23.6737 0.594752C23.9686 0.867252 24.1493 1.20455 24.2236 1.60919C24.2934 2.01382 24.2521 2.48516 24.099 3.0386C23.8284 4.01229 23.3541 4.75845 22.6783 5.27981C22.0003 5.79441 21.1615 6.05298 20.1603 6.05298H18.6055L17.867 8.71973H15.2754ZM19.1942 3.92575H20.0297C20.5698 3.92575 20.9496 3.85905 21.172 3.7303C21.3873 3.59985 21.5404 3.36809 21.6337 3.0386C21.7269 2.70467 21.7029 2.47122 21.5619 2.34078C21.4262 2.21097 21.0794 2.14532 20.5244 2.14532H19.6907L19.1942 3.92575Z" fill="#1B3281"/>
<path d="M26.8855 8.71981L26.9096 8.10937C26.5276 8.39538 26.1407 8.61152 25.7516 8.74661C25.3643 8.88424 24.9519 8.9541 24.5101 8.9541C23.8391 8.9541 23.3711 8.77173 23.1005 8.41881C22.8333 8.06526 22.7894 7.55762 22.9718 6.91004C23.1463 6.2709 23.4568 5.80041 23.9047 5.49962C24.3501 5.19525 25.0939 4.97742 26.1375 4.83811C26.2698 4.81658 26.4471 4.79927 26.6692 4.77246C27.4407 4.68318 27.8738 4.47759 27.9671 4.14219C28.0156 3.95855 27.9861 3.82304 27.8721 3.73987C27.7621 3.65354 27.5566 3.61112 27.2598 3.61112C27.0135 3.61112 26.8153 3.6622 26.6527 3.76837C26.4904 3.8756 26.3693 4.03222 26.2871 4.25258H23.9773C24.1859 3.52901 24.612 2.98232 25.2518 2.61674C25.8893 2.24482 26.7298 2.06583 27.7708 2.06583C28.2603 2.06583 28.6987 2.11163 29.0862 2.21105C29.4744 2.30624 29.7581 2.44196 29.9421 2.60618C30.1686 2.81114 30.3027 3.0448 30.3409 3.30316C30.385 3.56088 30.3366 3.93027 30.2016 4.41363L29.208 7.99708C29.1761 8.11444 29.17 8.21913 29.1873 8.31433C29.208 8.40509 29.2477 8.48277 29.3178 8.53828L29.2644 8.71981H26.8855ZM27.4614 5.8498C27.2098 5.9509 26.8828 6.04779 26.4765 6.15417C25.8384 6.32535 25.4794 6.55374 25.4017 6.83637C25.3479 7.01811 25.3696 7.15805 25.4585 7.26443C25.5461 7.36554 25.6982 7.41662 25.9127 7.41662C26.3059 7.41662 26.6217 7.3172 26.857 7.1209C27.093 6.92207 27.2695 6.60988 27.393 6.17929C27.4145 6.08768 27.4335 6.02182 27.4457 5.97264L27.4614 5.8498Z" fill="#1B3281"/>
<path d="M29.2832 11.2528L29.809 9.35041H30.487C30.7135 9.35041 30.8916 9.30566 31.0178 9.22418C31.146 9.13954 31.2331 8.99685 31.2834 8.80477C31.3085 8.72013 31.3239 8.63106 31.3344 8.52995C31.3412 8.42273 31.3412 8.30938 31.3344 8.17809L30.9727 2.29264H33.3707L33.3336 6.19249L35.427 2.29264H37.657L33.956 8.6891C33.536 9.40402 33.2308 9.8952 33.037 10.1633C32.8458 10.428 32.6642 10.6338 32.488 10.7731C32.2596 10.9658 32.0046 11.1023 31.7294 11.1819C31.4535 11.2632 31.0335 11.3037 30.4688 11.3037C30.3063 11.3037 30.1193 11.3005 29.9171 11.29C29.7163 11.2822 29.5021 11.2701 29.2832 11.2528Z" fill="#1B3281"/>
</g>
<defs>
<clipPath id="clip0_0_5341">
<rect width="43" height="11.3114" fill="white"/>
</clipPath>
</defs>
</svg>
