<svg width="30" height="28" viewBox="0 0 30 28" fill="none" xmlns="http://www.w3.org/2000/svg">
<path d="M20.189 0C21.1186 0.155483 22.0482 0.310966 22.8229 0.466448C26.2314 1.08838 28.8653 3.5761 29.7948 6.84124C30.2596 9.32896 29.9498 11.9722 28.7103 14.1489C27.3159 16.9476 25.4567 19.2799 22.9778 21.1456C19.7242 23.9443 15.8509 26.1211 11.6677 27.5204C10.7381 27.8314 9.65362 27.9869 8.72402 27.9869C7.01976 28.1424 5.47044 26.8985 5.31551 25.1882V24.4108C5.62537 21.1456 7.94936 18.5024 11.2029 17.5695C11.9776 17.5695 12.7523 17.5695 13.372 17.8805C14.1467 18.1915 14.6115 19.1244 14.3016 20.0573C14.1467 20.3682 13.9917 20.5237 13.8368 20.6792C13.2171 21.3011 12.5973 21.9231 11.9776 22.3895C11.3579 22.8559 10.8931 23.3224 10.4283 23.9443C10.1184 24.2553 9.96348 24.5663 9.80855 24.8772C9.49869 25.4992 9.80855 25.8101 10.4283 25.8101C10.7381 25.8101 11.048 25.8101 11.3579 25.6546C16.7805 23.6334 21.1186 19.9018 23.9074 14.9263C24.3722 14.1489 24.5271 13.3715 24.5271 12.4386C24.6821 9.79541 22.9778 8.24058 20.4989 9.01799C18.6397 9.63993 16.6256 10.4173 14.9213 11.3502C13.0621 12.2831 11.2029 13.527 9.34375 14.4599C7.94936 15.2373 6.40003 15.7037 4.69578 15.8592C3.92111 16.0147 3.14645 15.8592 2.52672 15.7037C0.977394 15.5483 -0.262065 13.9934 0.0478002 12.1276C0.0478002 11.9722 0.0477993 11.8167 0.202732 11.6612C0.977395 9.48444 2.37179 7.46317 4.23098 6.21931C7.79443 3.42062 11.9776 1.39934 16.4706 0.466448C17.2453 0.310966 18.1749 0.155483 18.9496 0H20.189Z" fill="#EB2227"/>
</svg>
