<svg width="39" height="14" viewBox="0 0 39 14" fill="none" xmlns="http://www.w3.org/2000/svg">
<path fill-rule="evenodd" clip-rule="evenodd" d="M10.0499 13.2516H6.7093L4.20424 3.4136C4.08534 2.96105 3.83288 2.56097 3.46151 2.37241C2.53474 1.89855 1.5135 1.52142 0.399414 1.33122V0.952455H5.78089C6.52362 0.952455 7.08066 1.52142 7.1735 2.18221L8.47326 9.27871L11.8123 0.952455H15.06L10.0499 13.2516ZM16.9165 13.2516H13.7616L16.3595 0.952455H19.5144L16.9165 13.2516ZM23.5962 4.35985C23.689 3.69742 24.2461 3.31865 24.8959 3.31865C25.9172 3.22355 27.0296 3.41376 27.958 3.88598L28.5151 1.23791C27.5867 0.859147 26.5654 0.668945 25.6387 0.668945C22.5766 0.668945 20.3484 2.37256 20.3484 4.73697C20.3484 6.53569 21.9267 7.48014 23.0408 8.04911C24.2461 8.61643 24.7103 8.9952 24.6174 9.56252C24.6174 10.4135 23.689 10.7923 22.7622 10.7923C21.6482 10.7923 20.5341 10.5086 19.5145 10.0347L18.9574 12.6845C20.0715 13.1567 21.2768 13.3469 22.3909 13.3469C25.8243 13.4403 27.958 11.7384 27.958 9.18376C27.958 5.96672 23.5962 5.77816 23.5962 4.35985ZM39.0001 13.2516L36.4951 0.952455H33.8043C33.2473 0.952455 32.6902 1.33122 32.5046 1.89855L27.8658 13.2516H31.1136L31.7618 11.4545H35.7523L36.1237 13.2516H39.0001ZM34.2679 4.26508L35.1947 8.90043H32.5968L34.2679 4.26508Z" fill="#172B85"/>
</svg>
